<svg xmlns="http://www.w3.org/2000/svg" viewBox="0 0 256 256">
  <rect width="256" height="256" rx="24" fill="#1B2B34"/>
  <path fill="#336791" d="M195 166c-9 9-29 14-44 11-13-3-22-10-28-20-4 7-10 12-18 13-10 1-21-2-26-7-3-3-3-7 0-9 3-2 12-3 18-5 6-3 10-9 13-15 3-9 6-17 10-25 5-12 6-26 3-44-2-14-8-21-20-22-11-1-24 3-35 10-2 2-5 1-5-2 2-41 23-75 65-79 47-5 84 29 98 70 1 3 2 6 1 9-1 17-6 28-4 44 5 35 4 54-10 71z"/>
  <circle cx="98" cy="90" r="6" fill="#fff"/>
  <circle cx="200" cy="90" r="6" fill="#fff"/>
</svg>

